<?xml version="1.0" encoding="UTF-8" standalone="no"?>
<!-- Uploaded to: SVG Repo, www.svgrepo.com, Generator: SVG Repo Mixer Tools -->

<svg
   fill="#000000"
   height="800px"
   width="800px"
   version="1.1"
   id="Capa_1"
   viewBox="0 0 471.701 471.701"
   xml:space="preserve"
   sodipodi:docname="heart_filled.svg"
   inkscape:version="1.2.2 (b0a84865, 2022-12-01)"
   xmlns:inkscape="http://www.inkscape.org/namespaces/inkscape"
   xmlns:sodipodi="http://sodipodi.sourceforge.net/DTD/sodipodi-0.dtd"
   xmlns="http://www.w3.org/2000/svg"
   xmlns:svg="http://www.w3.org/2000/svg"><defs
   id="defs64" /><sodipodi:namedview
   id="namedview62"
   pagecolor="#ffffff"
   bordercolor="#000000"
   borderopacity="0.25"
   inkscape:showpageshadow="2"
   inkscape:pageopacity="0.0"
   inkscape:pagecheckerboard="0"
   inkscape:deskcolor="#d1d1d1"
   showgrid="false"
   inkscape:zoom="0.295"
   inkscape:cx="318.64407"
   inkscape:cy="400"
   inkscape:window-width="1309"
   inkscape:window-height="456"
   inkscape:window-x="0"
   inkscape:window-y="37"
   inkscape:window-maximized="0"
   inkscape:current-layer="Capa_1" />
<g
   id="g59"
   style="fill:#000000;fill-opacity:1">
	<path
   id="path57"
   style="fill:#000000;fill-opacity:1;stroke:none;stroke-opacity:1"
   d="m 130.40068,28.501289 c -34.799963,0 -67.599373,13.600205 -92.199348,38.200181 -24.699975,24.699975 -38.30018029,57.49977 -38.20018039,92.39973 0,34.89997 13.69943439,67.59957 38.39940939,92.29954 L 226.20113,439.20131 c 2.6,2.6 6.09966,3.99955 9.49966,3.99955 3.4,0 6.89966,-1.29936 9.49966,-3.89936 l 188.20018,-187.5 c 24.69997,-24.69997 38.30037,-57.50091 38.30037,-92.40088 0.1,-34.89997 -13.40001,-67.699756 -38.09999,-92.399731 -24.69998,-24.699975 -57.39958,-38.20018 -92.29954,-38.20018 -34.89997,0 -67.70091,13.600395 -92.40088,38.300371 L 236.00136,80.001457 222.9006,66.900699 C 198.20063,42.200723 165.30065,28.501289 130.40068,28.501289 Z"
   sodipodi:nodetypes="sscssscccssccss" />
</g>
</svg>
